# WaveFront *.obj file (generated by Cheetah3D)

mtllib Cube.mtl

g Box
v -0.500000 -0.500000 0.500000
v -0.500000 0.500000 0.500000
v 0.500000 0.500000 0.500000
v 0.500000 -0.500000 0.500000
v 0.500000 -0.500000 -0.500000
v 0.500000 0.500000 -0.500000
v -0.500000 0.500000 -0.500000
v -0.500000 -0.500000 -0.500000

vt 0.000000 0.000000
vt 0.110000 0.000000
vt 0.430000 0.000000
vt 0.500000 0.000000
vt 0.000000 0.500000
vt 0.110000 0.500000
vt 0.430000 0.500000
vt 0.500000 0.500000

vn 0.000000 0.000000 1.000000
vn 0.000000 0.000000 -1.000000
vn -1.000000 0.000000 0.000000
vn 1.000000 0.000000 0.000000
vn 0.000000 1.000000 0.000000
vn 0.000000 -1.000000 0.000000

usemtl default
f 4/5/1 3/6/1 2/2/1 1/1/1
f 8/7/2 7/8/2 6/4/2 5/3/2
f 1/7/3 2/8/3 7/4/3 8/3/3
f 5/7/4 6/8/4 3/4/4 4/3/4
f 3/6/5 6/7/5 7/3/5 2/2/5
f 5/6/6 4/7/6 1/3/6 8/2/6

